<mxfile host="app.diagrams.net" modified="2023-01-02T18:31:56.173Z" agent="5.0 (Windows NT 10.0; Win64; x64) AppleWebKit/537.36 (KHTML, like Gecko) Chrome/108.0.0.0 Safari/537.36" etag="9HZmu4DRvIkgrdDhHt4Y" version="20.7.4" type="github">
  <diagram id="iflcz9L9lddjhd_aKS9f" name="Page-1">
    <mxGraphModel dx="2206" dy="1088" grid="1" gridSize="10" guides="1" tooltips="1" connect="1" arrows="1" fold="1" page="1" pageScale="1" pageWidth="827" pageHeight="1169" math="0" shadow="0">
      <root>
        <mxCell id="0" />
        <mxCell id="1" parent="0" />
        <mxCell id="fzTxyiR3DTIcGO3m_xMy-1" value="Buyer" style="shape=umlActor;verticalLabelPosition=bottom;verticalAlign=top;html=1;outlineConnect=0;" parent="1" vertex="1">
          <mxGeometry x="80" y="465" width="30" height="60" as="geometry" />
        </mxCell>
        <mxCell id="fzTxyiR3DTIcGO3m_xMy-13" value="" style="endArrow=none;html=1;rounded=0;entryX=0;entryY=0.5;entryDx=0;entryDy=0;exitX=1;exitY=0.3333333333333333;exitDx=0;exitDy=0;exitPerimeter=0;" parent="1" source="fzTxyiR3DTIcGO3m_xMy-1" target="fzTxyiR3DTIcGO3m_xMy-7" edge="1">
          <mxGeometry width="50" height="50" relative="1" as="geometry">
            <mxPoint x="-474" y="404" as="sourcePoint" />
            <mxPoint x="-294" y="394" as="targetPoint" />
          </mxGeometry>
        </mxCell>
        <mxCell id="fzTxyiR3DTIcGO3m_xMy-14" value="" style="endArrow=none;html=1;rounded=0;entryX=0;entryY=0.5;entryDx=0;entryDy=0;exitX=1;exitY=0.3333333333333333;exitDx=0;exitDy=0;exitPerimeter=0;" parent="1" source="fzTxyiR3DTIcGO3m_xMy-1" target="fzTxyiR3DTIcGO3m_xMy-8" edge="1">
          <mxGeometry width="50" height="50" relative="1" as="geometry">
            <mxPoint x="-464" y="404" as="sourcePoint" />
            <mxPoint x="-344.00000000000057" y="374" as="targetPoint" />
          </mxGeometry>
        </mxCell>
        <mxCell id="fzTxyiR3DTIcGO3m_xMy-15" value="" style="endArrow=none;html=1;rounded=0;entryX=0;entryY=0.5;entryDx=0;entryDy=0;exitX=1;exitY=0.3333333333333333;exitDx=0;exitDy=0;exitPerimeter=0;" parent="1" source="fzTxyiR3DTIcGO3m_xMy-1" target="fzTxyiR3DTIcGO3m_xMy-9" edge="1">
          <mxGeometry width="50" height="50" relative="1" as="geometry">
            <mxPoint x="-464" y="414" as="sourcePoint" />
            <mxPoint x="-354" y="434" as="targetPoint" />
          </mxGeometry>
        </mxCell>
        <mxCell id="fzTxyiR3DTIcGO3m_xMy-32" value="" style="endArrow=none;html=1;rounded=0;entryX=0;entryY=0.5;entryDx=0;entryDy=0;exitX=1;exitY=0.3333333333333333;exitDx=0;exitDy=0;exitPerimeter=0;" parent="1" source="fzTxyiR3DTIcGO3m_xMy-1" target="fzTxyiR3DTIcGO3m_xMy-31" edge="1">
          <mxGeometry width="50" height="50" relative="1" as="geometry">
            <mxPoint x="-474" y="404" as="sourcePoint" />
            <mxPoint x="-344" y="544" as="targetPoint" />
            <Array as="points">
              <mxPoint x="210" y="670" />
            </Array>
          </mxGeometry>
        </mxCell>
        <mxCell id="fzTxyiR3DTIcGO3m_xMy-38" value="" style="endArrow=none;html=1;rounded=0;entryX=0;entryY=0.5;entryDx=0;entryDy=0;exitX=1;exitY=0.3333333333333333;exitDx=0;exitDy=0;exitPerimeter=0;" parent="1" source="fzTxyiR3DTIcGO3m_xMy-1" target="fzTxyiR3DTIcGO3m_xMy-37" edge="1">
          <mxGeometry width="50" height="50" relative="1" as="geometry">
            <mxPoint x="-474" y="384" as="sourcePoint" />
            <mxPoint x="-294" y="284" as="targetPoint" />
          </mxGeometry>
        </mxCell>
        <mxCell id="fzTxyiR3DTIcGO3m_xMy-71" value="" style="endArrow=none;html=1;rounded=0;entryX=0;entryY=0.5;entryDx=0;entryDy=0;exitX=1;exitY=0.3333333333333333;exitDx=0;exitDy=0;exitPerimeter=0;" parent="1" source="fzTxyiR3DTIcGO3m_xMy-1" target="fzTxyiR3DTIcGO3m_xMy-70" edge="1">
          <mxGeometry width="50" height="50" relative="1" as="geometry">
            <mxPoint x="-480" y="379" as="sourcePoint" />
            <mxPoint x="-284" y="449" as="targetPoint" />
          </mxGeometry>
        </mxCell>
        <mxCell id="shujwAAoVSuc9WlUjUta-3" value="" style="endArrow=none;html=1;rounded=0;entryX=0;entryY=0.5;entryDx=0;entryDy=0;exitX=1;exitY=0.3333333333333333;exitDx=0;exitDy=0;exitPerimeter=0;" parent="1" source="fzTxyiR3DTIcGO3m_xMy-1" target="shujwAAoVSuc9WlUjUta-2" edge="1">
          <mxGeometry width="50" height="50" relative="1" as="geometry">
            <mxPoint x="-480" y="379" as="sourcePoint" />
            <mxPoint x="-240" y="569" as="targetPoint" />
          </mxGeometry>
        </mxCell>
        <mxCell id="shujwAAoVSuc9WlUjUta-7" value="" style="endArrow=none;html=1;rounded=0;entryX=0;entryY=0.5;entryDx=0;entryDy=0;exitX=1;exitY=0.3333333333333333;exitDx=0;exitDy=0;exitPerimeter=0;" parent="1" source="fzTxyiR3DTIcGO3m_xMy-1" target="shujwAAoVSuc9WlUjUta-6" edge="1">
          <mxGeometry width="50" height="50" relative="1" as="geometry">
            <mxPoint x="-480" y="369" as="sourcePoint" />
            <mxPoint x="-120.00000000000364" y="334" as="targetPoint" />
            <Array as="points">
              <mxPoint x="230" y="300" />
            </Array>
          </mxGeometry>
        </mxCell>
        <mxCell id="pjOr5kPZJRiAs7mUZGaG-1" value="" style="swimlane;startSize=0;" vertex="1" parent="1">
          <mxGeometry x="180" y="110" width="460" height="710" as="geometry" />
        </mxCell>
        <mxCell id="fzTxyiR3DTIcGO3m_xMy-7" value="Add Items to cart" style="ellipse;whiteSpace=wrap;html=1;" parent="pjOr5kPZJRiAs7mUZGaG-1" vertex="1">
          <mxGeometry x="80" y="260" width="120" height="40" as="geometry" />
        </mxCell>
        <mxCell id="fzTxyiR3DTIcGO3m_xMy-8" value="Update or delete Cart&lt;br&gt;Items" style="ellipse;whiteSpace=wrap;html=1;" parent="pjOr5kPZJRiAs7mUZGaG-1" vertex="1">
          <mxGeometry x="70" y="315" width="140" height="60" as="geometry" />
        </mxCell>
        <mxCell id="fzTxyiR3DTIcGO3m_xMy-9" value="Place Order" style="ellipse;whiteSpace=wrap;html=1;" parent="pjOr5kPZJRiAs7mUZGaG-1" vertex="1">
          <mxGeometry x="77" y="410" width="120" height="40" as="geometry" />
        </mxCell>
        <mxCell id="fzTxyiR3DTIcGO3m_xMy-10" value="Make Payment" style="ellipse;whiteSpace=wrap;html=1;" parent="pjOr5kPZJRiAs7mUZGaG-1" vertex="1">
          <mxGeometry x="280" y="500" width="120" height="40" as="geometry" />
        </mxCell>
        <mxCell id="fzTxyiR3DTIcGO3m_xMy-31" value="Logout" style="ellipse;whiteSpace=wrap;html=1;" parent="pjOr5kPZJRiAs7mUZGaG-1" vertex="1">
          <mxGeometry x="90" y="640" width="120" height="40" as="geometry" />
        </mxCell>
        <mxCell id="fzTxyiR3DTIcGO3m_xMy-37" value="Search Items" style="ellipse;whiteSpace=wrap;html=1;" parent="pjOr5kPZJRiAs7mUZGaG-1" vertex="1">
          <mxGeometry x="80" y="200" width="120" height="40" as="geometry" />
        </mxCell>
        <mxCell id="fzTxyiR3DTIcGO3m_xMy-70" value="Check Order Status" style="ellipse;whiteSpace=wrap;html=1;" parent="pjOr5kPZJRiAs7mUZGaG-1" vertex="1">
          <mxGeometry x="80" y="485" width="120" height="40" as="geometry" />
        </mxCell>
        <mxCell id="shujwAAoVSuc9WlUjUta-2" value="Cancel Order" style="ellipse;whiteSpace=wrap;html=1;" parent="pjOr5kPZJRiAs7mUZGaG-1" vertex="1">
          <mxGeometry x="90" y="570" width="120" height="40" as="geometry" />
        </mxCell>
        <mxCell id="shujwAAoVSuc9WlUjUta-6" value="Login" style="ellipse;whiteSpace=wrap;html=1;" parent="pjOr5kPZJRiAs7mUZGaG-1" vertex="1">
          <mxGeometry x="150" y="110" width="120" height="40" as="geometry" />
        </mxCell>
        <mxCell id="pjOr5kPZJRiAs7mUZGaG-2" value="&lt;font style=&quot;font-size: 16px;&quot;&gt;E-Commerce App&lt;/font&gt;" style="text;html=1;align=center;verticalAlign=middle;resizable=0;points=[];autosize=1;strokeColor=none;fillColor=none;" vertex="1" parent="pjOr5kPZJRiAs7mUZGaG-1">
          <mxGeometry x="155" width="150" height="30" as="geometry" />
        </mxCell>
        <mxCell id="pjOr5kPZJRiAs7mUZGaG-3" value="&lt;font style=&quot;font-size: 15px;&quot;&gt;&amp;lt;&amp;lt;include&amp;gt;&amp;gt;&lt;/font&gt;" style="html=1;verticalAlign=bottom;endArrow=open;dashed=1;endSize=8;rounded=0;fontSize=16;exitX=1;exitY=1;exitDx=0;exitDy=0;entryX=0;entryY=0.5;entryDx=0;entryDy=0;" edge="1" parent="pjOr5kPZJRiAs7mUZGaG-1" source="fzTxyiR3DTIcGO3m_xMy-9" target="fzTxyiR3DTIcGO3m_xMy-10">
          <mxGeometry x="-0.045" y="-12" relative="1" as="geometry">
            <mxPoint x="320" y="340" as="sourcePoint" />
            <mxPoint x="240" y="340" as="targetPoint" />
            <mxPoint as="offset" />
          </mxGeometry>
        </mxCell>
        <mxCell id="pjOr5kPZJRiAs7mUZGaG-4" value="Display Payment Error" style="ellipse;whiteSpace=wrap;html=1;" vertex="1" parent="pjOr5kPZJRiAs7mUZGaG-1">
          <mxGeometry x="260" y="410" width="140" height="40" as="geometry" />
        </mxCell>
        <mxCell id="pjOr5kPZJRiAs7mUZGaG-5" value="&lt;font style=&quot;font-size: 15px;&quot;&gt;&amp;lt;&amp;lt;entend&amp;gt;&amp;gt;&lt;/font&gt;" style="html=1;verticalAlign=bottom;endArrow=open;dashed=1;endSize=8;rounded=0;fontSize=16;exitX=0.5;exitY=1;exitDx=0;exitDy=0;" edge="1" parent="pjOr5kPZJRiAs7mUZGaG-1" source="pjOr5kPZJRiAs7mUZGaG-4" target="fzTxyiR3DTIcGO3m_xMy-10">
          <mxGeometry x="-0.0047" y="12" relative="1" as="geometry">
            <mxPoint x="207" y="440" as="sourcePoint" />
            <mxPoint x="300" y="490" as="targetPoint" />
            <mxPoint as="offset" />
          </mxGeometry>
        </mxCell>
        <mxCell id="pjOr5kPZJRiAs7mUZGaG-6" value="Server" style="shape=umlActor;verticalLabelPosition=bottom;verticalAlign=top;html=1;outlineConnect=0;" vertex="1" parent="1">
          <mxGeometry x="690" y="465" width="30" height="60" as="geometry" />
        </mxCell>
        <mxCell id="pjOr5kPZJRiAs7mUZGaG-11" value="" style="endArrow=none;html=1;rounded=0;fontSize=15;entryX=1;entryY=0.5;entryDx=0;entryDy=0;exitX=0;exitY=0.3333333333333333;exitDx=0;exitDy=0;exitPerimeter=0;" edge="1" parent="1" source="pjOr5kPZJRiAs7mUZGaG-6" target="shujwAAoVSuc9WlUjUta-6">
          <mxGeometry width="50" height="50" relative="1" as="geometry">
            <mxPoint x="470" y="460" as="sourcePoint" />
            <mxPoint x="520" y="410" as="targetPoint" />
          </mxGeometry>
        </mxCell>
        <mxCell id="pjOr5kPZJRiAs7mUZGaG-12" value="" style="endArrow=none;html=1;rounded=0;fontSize=15;entryX=0.938;entryY=0.29;entryDx=0;entryDy=0;entryPerimeter=0;exitX=0;exitY=0.3333333333333333;exitDx=0;exitDy=0;exitPerimeter=0;" edge="1" parent="1" source="pjOr5kPZJRiAs7mUZGaG-6" target="fzTxyiR3DTIcGO3m_xMy-9">
          <mxGeometry width="50" height="50" relative="1" as="geometry">
            <mxPoint x="820" y="490" as="sourcePoint" />
            <mxPoint x="534.9999999999918" y="200" as="targetPoint" />
            <Array as="points">
              <mxPoint x="470" y="500" />
            </Array>
          </mxGeometry>
        </mxCell>
        <mxCell id="pjOr5kPZJRiAs7mUZGaG-13" value="" style="endArrow=none;html=1;rounded=0;fontSize=15;entryX=0.997;entryY=0.422;entryDx=0;entryDy=0;exitX=0;exitY=0.3333333333333333;exitDx=0;exitDy=0;exitPerimeter=0;entryPerimeter=0;" edge="1" parent="1" source="pjOr5kPZJRiAs7mUZGaG-6" target="fzTxyiR3DTIcGO3m_xMy-10">
          <mxGeometry width="50" height="50" relative="1" as="geometry">
            <mxPoint x="840" y="505" as="sourcePoint" />
            <mxPoint x="544.9999999999918" y="210" as="targetPoint" />
          </mxGeometry>
        </mxCell>
        <mxCell id="pjOr5kPZJRiAs7mUZGaG-14" value="" style="endArrow=none;html=1;rounded=0;fontSize=15;entryX=1;entryY=0.5;entryDx=0;entryDy=0;exitX=0;exitY=0.3333333333333333;exitDx=0;exitDy=0;exitPerimeter=0;" edge="1" parent="1" source="pjOr5kPZJRiAs7mUZGaG-6" target="fzTxyiR3DTIcGO3m_xMy-8">
          <mxGeometry width="50" height="50" relative="1" as="geometry">
            <mxPoint x="850" y="515" as="sourcePoint" />
            <mxPoint x="554.9999999999918" y="220" as="targetPoint" />
          </mxGeometry>
        </mxCell>
        <mxCell id="pjOr5kPZJRiAs7mUZGaG-15" value="" style="endArrow=none;html=1;rounded=0;fontSize=15;entryX=1;entryY=0.5;entryDx=0;entryDy=0;exitX=0;exitY=0.3333333333333333;exitDx=0;exitDy=0;exitPerimeter=0;" edge="1" parent="1" source="pjOr5kPZJRiAs7mUZGaG-6" target="fzTxyiR3DTIcGO3m_xMy-7">
          <mxGeometry width="50" height="50" relative="1" as="geometry">
            <mxPoint x="860" y="525" as="sourcePoint" />
            <mxPoint x="564.9999999999918" y="230" as="targetPoint" />
          </mxGeometry>
        </mxCell>
        <mxCell id="pjOr5kPZJRiAs7mUZGaG-16" value="" style="endArrow=none;html=1;rounded=0;fontSize=15;entryX=1;entryY=0.5;entryDx=0;entryDy=0;exitX=0;exitY=0.3333333333333333;exitDx=0;exitDy=0;exitPerimeter=0;" edge="1" parent="1" source="pjOr5kPZJRiAs7mUZGaG-6" target="shujwAAoVSuc9WlUjUta-2">
          <mxGeometry width="50" height="50" relative="1" as="geometry">
            <mxPoint x="700" y="495" as="sourcePoint" />
            <mxPoint x="460.0000000000059" y="250" as="targetPoint" />
            <Array as="points">
              <mxPoint x="560" y="720" />
            </Array>
          </mxGeometry>
        </mxCell>
      </root>
    </mxGraphModel>
  </diagram>
</mxfile>
